<svg xmlns="http://www.w3.org/2000/svg" viewBox="0 0 1200 420">
<defs><linearGradient id="g" x1="0" x2="0" y1="0" y2="1"><stop offset="0" stop-color="#111827"/><stop offset="1" stop-color="#030712"/></linearGradient></defs>
<rect width="1200" height="420" fill="url(#g)"/>
<text x="600" y="50" text-anchor="middle" fill="#fbbf24" font-size="36" font-family="serif">Victory in the Dragon's Lair</text>
<g transform="translate(70,90)">
<rect width="320" height="260" rx="18" fill="#1f2937" stroke="#92400e" stroke-width="5"/>
<rect x="40" y="120" width="240" height="120" rx="12" fill="#78350f" stroke="#fbbf24" stroke-width="6"/>
<rect x="145" y="145" width="30" height="55" fill="#facc15"/>
<text x="160" y="95" text-anchor="middle" fill="#fde68a" font-size="26" font-family="serif">Chest of Gold</text>
</g>
<g transform="translate(440,60)">
<rect width="320" height="290" rx="18" fill="#111827" stroke="#7f1d1d" stroke-width="5"/>
<path d="M35 210 Q160 30 285 210" fill="#374151" stroke="#ef4444" stroke-width="8"/>
<line x1="120" y1="160" x2="150" y2="190" stroke="#ddd" stroke-width="7"/><line x1="150" y1="160" x2="120" y2="190" stroke="#ddd" stroke-width="7"/>
<line x1="170" y1="160" x2="200" y2="190" stroke="#ddd" stroke-width="7"/><line x1="200" y1="160" x2="170" y2="190" stroke="#ddd" stroke-width="7"/>
<text x="160" y="260" text-anchor="middle" fill="#fecaca" font-size="26" font-family="serif">Fallen Dragon</text>
</g>
<g transform="translate(810,90)">
<rect width="320" height="260" rx="18" fill="#0f172a" stroke="#64748b" stroke-width="5"/>
<path d="M90 260 L90 120 Q90 60 160 60 Q230 60 230 120 L230 260" fill="none" stroke="#cbd5e1" stroke-width="16"/>
<path d="M140 200 L180 200" stroke="#f8fafc" stroke-width="10"/>
<text x="160" y="95" text-anchor="middle" fill="#e2e8f0" font-size="26" font-family="serif">Dungeon Exit</text>
</g>
</svg>